<?xml version="1.0" standalone="no"?>
<!DOCTYPE svg PUBLIC "-//W3C//DTD SVG 20010904//EN"
 "http://www.w3.org/TR/2001/REC-SVG-20010904/DTD/svg10.dtd">
<svg version="1.0" xmlns="http://www.w3.org/2000/svg"
 width="564.000000pt" height="564.000000pt" viewBox="0 0 564.000000 564.000000"
 preserveAspectRatio="xMidYMid meet">

<g transform="translate(0.000000,564.000000) scale(0.100000,-0.100000)"
fill="#000000" stroke="none">
<path d="M2575 5629 c-445 -39 -897 -192 -1277 -435 -328 -210 -668 -553 -869
-879 -217 -351 -343 -702 -405 -1130 -25 -167 -25 -553 0 -720 62 -428 188
-779 405 -1130 201 -326 541 -669 869 -879 388 -248 830 -396 1295 -435 607
-51 1230 104 1749 435 328 210 668 553 869 879 217 351 343 702 405 1130 25
167 25 553 0 720 -62 428 -188 779 -405 1130 -201 326 -541 669 -869 879 -523
333 -1151 488 -1767 435z m670 -1283 c206 -55 355 -244 355 -452 l0 -53 273
-3 c270 -3 272 -3 328 -29 79 -37 133 -90 171 -167 l33 -67 3 -843 c2 -543 -1
-864 -8 -899 -14 -77 -46 -137 -102 -189 -90 -84 -105 -88 -418 -95 -362 -9
-1914 -9 -2200 0 -198 6 -231 9 -271 28 -86 38 -165 128 -189 214 -6 20 -10
389 -10 905 0 861 0 873 21 928 26 72 100 148 176 184 58 27 58 27 331 30
l272 3 1 52 c2 208 148 397 349 453 67 18 816 19 885 0z"/>
<path d="M2395 4086 c-72 -32 -124 -115 -125 -198 l0 -48 536 0 536 0 -4 65
c-5 79 -41 137 -107 172 -44 23 -45 23 -425 23 -295 -1 -388 -4 -411 -14z"/>
</g>
</svg>
